<svg xmlns="http://www.w3.org/2000/svg" version="1.1" xmlns:xlink="http://www.w3.org/1999/xlink" width="1000" height="1000"><g clip-path="url(#SvgjsClipPath1001)"><rect width="1000" height="1000" fill="#ffffff"></rect><g transform="matrix(3.5,0,0,3.5,150,150)"><svg xmlns="http://www.w3.org/2000/svg" version="1.1" xmlns:xlink="http://www.w3.org/1999/xlink" width="200" height="200"><svg xmlns="http://www.w3.org/2000/svg" version="1.1" xmlns:xlink="http://www.w3.org/1999/xlink" viewBox="0 0 200 200"><rect width="200" height="200" fill="url('#gradient')"></rect><defs><linearGradient id="gradient" gradientTransform="rotate(45 0.5 0.5)"><stop offset="0%" stop-color="#000000"></stop><stop offset="100%" stop-color="#456a34"></stop></linearGradient><clipPath id="SvgjsClipPath1001"><rect width="1000" height="1000" x="0" y="0" rx="350" ry="350"></rect></clipPath></defs><g><g fill="#ffffff" transform="matrix(7.191572376121733,0,0,7.191572376121733,5.5030891526457,142.4694304479271)" stroke="#000000" stroke-width="0.2"><path d="M8.41-3.78L8.41-3.78Q8.41-4.53 7.88-4.95Q7.34-5.37 6.01-5.82Q4.67-6.27 3.82-6.69L3.82-6.69Q1.05-8.05 1.05-10.42L1.05-10.42Q1.05-11.60 1.74-12.50Q2.43-13.41 3.69-13.91Q4.95-14.41 6.52-14.41L6.52-14.41Q8.06-14.41 9.27-13.87Q10.49-13.32 11.16-12.31Q11.84-11.30 11.84-10L11.84-10L8.42-10Q8.42-10.87 7.89-11.35Q7.35-11.83 6.45-11.83L6.45-11.83Q5.53-11.83 5.00-11.42Q4.46-11.02 4.46-10.39L4.46-10.39Q4.46-9.84 5.05-9.40Q5.63-8.96 7.11-8.48Q8.58-8.01 9.53-7.46L9.53-7.46Q11.84-6.13 11.84-3.80L11.84-3.80Q11.84-1.93 10.43-0.87Q9.02 0.20 6.57 0.20L6.57 0.20Q4.84 0.20 3.44-0.42Q2.04-1.04 1.33-2.12Q0.63-3.20 0.63-4.61L0.63-4.61L4.06-4.61Q4.06-3.47 4.65-2.92Q5.24-2.38 6.57-2.38L6.57-2.38Q7.42-2.38 7.92-2.75Q8.41-3.12 8.41-3.78ZM25.65-7.47L25.65-6.82Q25.65-4.84 25-3.37Q24.35-1.90 23.19-1.02L23.19-1.02L25.49 0.80L23.37 2.60L20.31 0.14Q19.88 0.20 19.45 0.20L19.45 0.20Q17.64 0.20 16.23-0.64Q14.82-1.48 14.04-3.05Q13.25-4.61 13.22-6.64L13.22-6.64L13.22-7.39Q13.22-9.49 13.99-11.08Q14.76-12.68 16.18-13.54Q17.60-14.41 19.43-14.41L19.43-14.41Q21.24-14.41 22.66-13.55Q24.07-12.70 24.86-11.11Q25.64-9.52 25.65-7.47L25.65-7.47ZM22.17-6.76L22.17-7.41Q22.17-9.53 21.46-10.63Q20.75-11.73 19.43-11.73L19.43-11.73Q18.08-11.73 17.39-10.64Q16.71-9.56 16.70-7.47L16.70-7.47L16.70-6.82Q16.70-4.72 17.39-3.60Q18.09-2.48 19.45-2.48L19.45-2.48Q20.76-2.48 21.46-3.58Q22.16-4.69 22.17-6.76L22.17-6.76Z"></path></g></g></svg></svg></g></g></svg>